<?xml version="1.0" standalone="no"?>
<!DOCTYPE svg PUBLIC "-//W3C//DTD SVG 1.1//EN" "http://www.w3.org/Graphics/SVG/1.1/DTD/svg11.dtd">
<!--Generator: Xara Designer (www.xara.com), SVG filter version: 6.7.0.0-->
<svg fill="none" fill-rule="evenodd" stroke="black" stroke-width="0.501" stroke-linejoin="bevel" stroke-miterlimit="10" font-family="Times New Roman" font-size="16" style="font-variant-ligatures:none" xmlns:xlink="http://www.w3.org/1999/xlink" xmlns="http://www.w3.org/2000/svg" version="1.1" overflow="visible" width="200.22pt" height="167.456pt" viewBox="216.75 -461.1 200.22 167.456">
 <defs>
	</defs>
 <g id="Layer 1" transform="scale(1 -1)">
  <g id="Group" fill="#ffffff" stroke-linejoin="miter" stroke="none">
   <g id="Group_1" fill-rule="nonzero" stroke-width="0.18">
    <path d="M 341.246,424.891 C 341.555,425.37 342.17,425.376 342.676,425.429 C 344.312,425.423 346.098,424.847 347.041,423.426 C 347.802,422.362 347.965,421.022 348.048,419.752 C 348.186,415.202 346.881,410.787 346.429,406.289 C 346.413,405.962 346.332,405.646 346.26,405.327 C 347.617,406.018 348.649,407.192 349.608,408.35 C 350.858,409.938 351.725,411.773 352.646,413.56 C 353.026,414.228 353.494,415.041 354.328,415.162 C 355.001,415.152 355.566,414.723 356.017,414.262 C 356.946,413.35 357.465,412.072 357.56,410.784 C 357.576,409.88 357.065,409.084 356.591,408.353 C 355.04,406.07 352.689,404.441 350.173,403.375 C 350.706,401.39 351.712,399.588 352.664,397.782 C 353.531,396.169 354.63,394.606 356.196,393.604 C 357.331,392.884 358.741,392.54 360.069,392.829 C 360.595,392.951 361.127,393.055 361.67,393.032 C 362.199,391.768 361.778,390.277 361.119,389.126 C 359.762,387.037 356.878,386.138 354.585,387.13 C 354.491,387.175 354.305,387.265 354.211,387.31 C 353.091,387.929 352.086,388.764 351.307,389.779 C 349.756,391.764 348.599,394.022 347.561,396.309 C 346.94,397.711 346.411,399.152 345.945,400.611 C 345.814,399.758 345.682,398.901 345.718,398.034 C 345.752,396.602 345.62,395.158 345.855,393.737 C 345.975,392.283 346.302,390.856 346.585,389.428 C 346.359,388.498 345.234,388.482 344.465,388.525 C 343.042,388.435 341.436,388.818 340.567,390.038 C 339.512,391.52 339.602,393.428 339.616,395.158 C 339.917,400.523 341.181,405.791 341.476,411.155 C 341.707,413.356 341.546,415.577 341.59,417.787 C 341.653,419.05 341.375,420.298 341.409,421.56 C 341.382,422.672 341.132,423.774 341.246,424.891 Z" marker-start="none" marker-end="none"/>
    <path d="M 267.763,416.753 C 272.224,418.966 277.149,420.508 282.171,420.395 C 285.03,420.308 288.045,419.705 290.287,417.814 C 291.748,416.549 292.751,414.694 292.821,412.745 C 293.002,410.154 292.051,407.573 290.488,405.529 C 289.135,403.721 287.356,402.24 285.314,401.273 C 287.263,401.209 289.374,401.198 291.064,400.085 C 292.13,399.342 292.947,398.271 293.446,397.073 C 294.625,394.132 294.243,390.775 293.008,387.916 C 292.283,386.237 291.246,384.713 290.122,383.279 C 288.201,380.788 285.581,378.943 282.853,377.432 C 280.236,376.017 277.426,374.914 274.488,374.398 C 271.715,374.002 268.73,373.569 266.08,374.732 C 264.446,375.648 263.563,377.544 263.692,379.382 C 263.764,380.391 263.825,381.669 264.798,382.252 C 264.927,382.25 265.187,382.247 265.318,382.245 C 265.889,381.92 266.402,381.486 267.028,381.262 C 268.773,380.603 270.665,380.594 272.503,380.635 C 274.644,380.833 276.755,381.378 278.706,382.288 C 280.746,383.271 282.734,384.413 284.476,385.87 C 286.423,387.491 288.081,389.703 288.363,392.285 C 288.56,393.604 288.192,395.105 287.078,395.93 C 285.483,397.141 283.357,397.059 281.46,396.957 C 279.193,396.731 276.944,396.287 274.662,396.228 C 274.504,391.967 274.931,387.721 275.54,383.51 C 275.545,383.168 275.672,382.714 275.292,382.52 C 274.319,382.035 273.203,381.856 272.122,381.879 C 270.864,381.818 269.54,382.431 268.935,383.572 C 268.617,384.341 268.511,385.169 268.515,385.996 C 268.358,387.4 268.352,388.816 268.511,390.218 C 268.693,395.444 269.936,400.561 270.369,405.764 C 270.65,407.763 270.805,409.788 271.243,411.76 C 268.143,410.145 265.41,407.711 263.743,404.611 C 263.078,403.443 263.021,402.079 262.691,400.807 C 262.596,400.363 262.255,400.054 261.89,399.818 C 260.867,399.758 259.934,400.268 259.126,400.838 C 258.03,401.587 257.294,402.811 257.071,404.112 C 256.834,406.399 258.061,408.506 259.417,410.241 C 261.678,412.991 264.597,415.151 267.763,416.753 M 276.076,413.655 C 276.665,411.682 276.252,409.572 276.261,407.542 C 276.091,405.191 275.739,402.858 275.31,400.537 C 277.11,401.06 278.918,401.619 280.574,402.515 C 282.573,403.579 284.429,405.026 285.673,406.941 C 286.512,408.251 286.907,409.879 286.581,411.413 C 286.125,413.007 284.487,413.811 282.979,414.115 C 280.68,414.524 278.335,414.122 276.076,413.655 Z" marker-start="none" marker-end="none"/>
    <path d="M 324.973,411.449 C 327.04,412.429 329.492,412.647 331.647,411.821 C 333.704,411.002 335.242,409.217 336.071,407.199 C 338.046,402.567 337.669,397.135 335.524,392.628 C 334.727,390.858 333.437,389.313 331.821,388.236 C 329.554,386.742 326.601,386.285 324.01,387.119 C 322.014,387.759 320.443,389.334 319.457,391.146 C 318.12,393.685 317.916,396.673 318.25,399.48 C 318.447,401.68 319.028,403.84 319.92,405.86 C 319.965,405.952 320.053,406.133 320.097,406.223 C 320.141,406.314 320.231,406.497 320.276,406.59 C 321.329,408.617 322.849,410.489 324.973,411.449 M 327.187,407.052 C 326.315,406.548 325.744,405.681 325.301,404.802 C 324.161,402.108 324.016,399.112 324.194,396.23 C 324.339,395.124 324.644,394.003 325.308,393.089 C 325.836,392.389 326.686,391.804 327.602,391.953 C 328.819,392.249 329.655,393.287 330.238,394.331 C 330.281,394.423 330.368,394.604 330.413,394.696 C 331.146,396.483 331.234,398.445 331.457,400.342 C 331.656,401.749 331.484,403.17 331.285,404.567 C 331.113,405.38 330.98,406.3 330.334,406.891 C 329.465,407.609 328.127,407.679 327.187,407.052 Z" marker-start="none" marker-end="none"/>
    <path d="M 304.164,409.834 C 306.147,410.588 308.436,410.633 310.383,409.741 C 312.018,409.018 313.247,407.585 313.99,405.984 C 316.184,401.496 316.485,396.004 314.265,391.463 C 313.083,388.871 311.169,386.479 308.497,385.336 C 306.334,384.456 303.804,384.41 301.657,385.363 C 299.6,386.265 298.105,388.139 297.295,390.196 C 296.676,391.716 296.474,393.36 296.373,394.986 C 296.45,398.156 296.968,401.379 298.394,404.241 C 299.593,406.686 301.583,408.851 304.164,409.834 M 305.241,404.803 C 304.067,403.73 303.487,402.185 303.045,400.697 C 302.314,397.8 302.152,394.648 303.215,391.813 C 303.511,391.287 303.814,390.722 304.349,390.399 C 305.205,389.817 306.415,389.973 307.185,390.632 C 308.118,391.387 308.696,392.485 309.057,393.61 C 309.796,396.145 310.058,398.84 309.629,401.454 C 309.405,402.747 309.133,404.202 308.059,405.075 C 307.228,405.765 305.985,405.487 305.241,404.803 Z" marker-start="none" marker-end="none"/>
    <path d="M 339.851,382.938 C 340.993,383.519 342.617,383.27 343.182,382.012 C 343.914,380.016 344.024,377.875 344.271,375.784 C 344.25,374.104 344.544,372.438 344.462,370.755 C 344.53,369.197 344.361,367.648 344.282,366.094 C 344,362.932 343.324,359.74 341.784,356.933 C 340.379,354.381 338.019,352.393 335.3,351.366 C 333.304,350.591 331.129,350.343 329.004,350.519 C 328.126,350.682 327.011,350.659 326.506,351.535 C 326.507,351.664 326.512,351.923 326.514,352.052 C 327.094,352.992 328.264,352.86 329.208,353.012 C 332.304,353.703 335.004,355.787 336.639,358.484 C 337.758,360.353 338.055,362.562 338.313,364.687 C 338.439,366.591 338.628,368.499 338.509,370.409 C 337.753,368.652 337.109,366.805 335.913,365.281 C 334.345,363.133 331.701,361.788 329.032,361.892 C 327.97,361.876 326.915,362.309 326.204,363.102 C 325.152,364.353 324.596,365.943 324.332,367.537 C 323.991,369.433 323.951,371.361 324.018,373.28 C 324.26,375.357 324.298,377.484 324.929,379.494 C 325.64,381.021 326.954,382.41 328.657,382.76 C 329.384,382.911 330.33,382.656 330.572,381.875 C 330.77,380.939 330.685,379.959 330.478,379.029 C 330.063,376.355 329.715,373.641 329.953,370.931 C 330.084,370.048 330.326,369.053 331.154,368.565 C 331.942,368.031 332.957,368.292 333.693,368.786 C 334.921,369.626 335.75,370.914 336.343,372.256 C 337.477,374.897 337.805,377.786 338.047,380.622 C 338.202,381.653 338.995,382.426 339.851,382.938 Z" marker-start="none" marker-end="none"/>
    <path d="M 313.689,380.533 C 314.662,381.574 316.187,382.155 317.593,381.779 C 318.542,381.577 319.472,381.086 320.028,380.268 C 320.911,379.09 321.066,377.555 321.116,376.132 C 320.95,374.124 320.69,372.126 320.466,370.125 C 320.315,367.819 320.114,365.455 320.724,363.192 C 321.209,361.18 322.347,359.198 324.244,358.226 C 324.919,357.99 325.628,357.835 326.345,357.835 C 327.173,357.793 327.974,358.149 328.805,358.009 C 329.259,357.587 328.802,356.948 328.449,356.616 C 326.926,355.347 324.881,354.848 322.928,354.947 C 321.125,354.864 319.255,355.23 317.749,356.262 C 316.668,356.978 315.826,358.005 315.248,359.159 C 313.562,362.914 314.096,367.16 314.653,371.105 C 314.665,372.212 315.118,373.492 314.401,374.466 C 313.947,375.052 313.401,374.289 313.147,373.898 C 310.492,369.576 309.951,364.409 309.216,359.498 C 309.005,358.757 308.19,358.507 307.515,358.387 C 306.63,358.328 305.648,358.274 304.909,358.856 C 304.1,359.432 303.902,360.498 303.888,361.43 C 303.753,363.698 303.865,365.974 304.069,368.233 C 304.074,369.131 304.11,370.034 304.049,370.929 C 303.941,371.593 303.473,372.183 302.807,372.347 C 301.813,371.769 301.307,370.672 300.848,369.669 C 299.345,366.031 298.742,362.088 298.514,358.183 C 298.502,357.544 298.546,356.705 297.888,356.357 C 296.824,355.81 295.508,355.97 294.436,356.422 C 293.494,356.885 292.757,357.822 292.776,358.906 C 292.812,360.879 292.71,362.847 292.609,364.816 C 292.613,366.925 292.374,369.021 292.234,371.123 C 292.161,372.498 291.854,373.856 291.87,375.234 C 291.721,376.313 292.722,377.085 293.593,377.484 C 295.02,378.158 297.199,377.63 297.649,375.971 C 298.123,374.01 297.915,371.975 298.005,369.98 C 298.567,371.431 299.171,372.866 299.817,374.282 C 300.522,375.831 301.33,377.366 302.501,378.621 C 302.971,379.124 303.441,379.682 304.112,379.917 C 304.784,380.21 305.535,380.069 306.246,380.086 C 307.327,379.94 308.071,378.978 308.462,378.029 C 309.279,376.001 309.353,373.779 309.337,371.62 C 309.688,372.119 309.737,372.747 309.956,373.303 C 310.776,375.892 311.76,378.55 313.689,380.533 Z" marker-start="none" marker-end="none"/>
    <path d="M 257.131,355.993 C 261.673,359.832 267.453,362.17 273.378,362.623 C 277.828,362.932 282.458,362.114 286.315,359.793 C 289.425,357.915 291.782,354.959 293.268,351.672 C 295.233,347.191 295.619,342.126 294.811,337.335 C 293.686,330.472 289.628,324.364 284.426,319.875 C 282.509,318.204 280.38,316.787 278.131,315.602 C 275.216,314.075 272.115,312.779 268.829,312.346 C 265.846,311.87 262.732,312.222 259.922,313.328 C 258.303,313.92 256.867,315.058 256.012,316.565 C 255.007,318.328 254.826,320.48 255.336,322.426 C 255.537,323.038 255.767,323.741 256.366,324.073 C 256.68,324.231 257.025,324.132 257.351,324.091 C 258.549,322.926 259.613,321.548 261.172,320.846 C 263.256,319.923 265.596,319.807 267.84,319.976 C 269.897,320.193 271.943,320.647 273.854,321.449 C 278.679,323.552 282.936,327.246 285.111,332.101 C 286.17,334.501 286.864,337.069 287.116,339.681 C 287.342,341.273 287.13,342.878 286.969,344.464 C 286.543,347.382 285.434,350.364 283.16,352.344 C 281.085,354.292 278.187,355.241 275.365,355.144 C 273.77,355.211 272.216,354.774 270.645,354.575 C 271.659,352.529 271.695,350.188 271.946,347.963 C 271.925,346.111 272.047,344.25 271.835,342.405 C 271.645,339.056 271.328,335.714 271.243,332.358 C 271.322,329.35 271.492,326.327 272.135,323.38 C 272.029,322.371 270.908,321.966 270.098,321.627 C 268.43,321.144 266.316,321.245 265.083,322.616 C 264.362,323.371 264.247,324.45 264.103,325.433 C 263.937,327.318 263.793,329.219 263.976,331.109 C 264.306,337.11 265.376,343.047 265.672,349.055 C 265.674,350.234 265.676,351.413 265.696,352.591 C 265.412,352.466 265.13,352.337 264.845,352.217 C 262.28,351.131 260.173,349.266 258.172,347.376 C 257.678,346.96 257.048,346.432 256.357,346.667 C 255.291,346.996 254.182,347.427 253.419,348.275 C 252.73,349.052 252.811,350.23 253.2,351.129 C 254.029,353.084 255.598,354.578 257.131,355.993 Z" marker-start="none" marker-end="none"/>
    <path d="M 373.646,357.569 C 376.041,358.996 379.192,359.529 381.73,358.161 C 383.482,357.113 384.498,355.155 384.704,353.163 C 385.07,351.12 384.781,348.939 383.714,347.141 C 382.067,344.338 379.427,342.141 376.405,340.96 C 374.933,340.375 373.383,339.993 371.809,339.815 C 371.868,338.212 372.497,336.481 373.797,335.454 C 375.416,334.297 377.593,334.465 379.39,335.084 C 382.437,336.258 384.618,338.899 386.062,341.74 C 386.461,342.491 386.732,343.309 387.188,344.027 C 387.507,344.523 388.22,344.591 388.701,344.297 C 389.464,343.905 389.735,343.003 389.792,342.206 C 389.85,340.325 389.195,338.512 388.401,336.834 C 387.255,334.488 385.648,332.343 383.615,330.694 C 381.902,329.336 379.837,328.44 377.685,328.068 C 374.922,327.601 371.966,328.163 369.609,329.693 C 367.273,331.138 365.791,333.672 365.227,336.316 C 364.845,337.841 364.919,339.413 364.922,340.969 C 365.109,343.902 365.805,346.798 366.939,349.51 C 368.304,352.779 370.533,355.789 373.646,357.569 M 377.186,352.963 C 375.633,352.049 374.63,350.46 373.865,348.875 C 373.119,347.236 372.503,345.537 372.069,343.788 C 373.885,344.201 375.831,344.573 377.262,345.86 C 378.883,347.319 379.806,349.551 379.646,351.73 C 379.653,352.163 379.503,352.597 379.226,352.926 C 378.641,353.383 377.821,353.22 377.186,352.963 Z" marker-start="none" marker-end="none"/>
    <path d="M 354.408,351.497 C 355.781,352.217 357.386,352.479 358.91,352.182 C 360.263,351.887 361.419,350.943 362.016,349.697 C 363.025,347.5 363.076,344.839 361.984,342.663 C 361.505,341.64 360.673,340.707 359.536,340.443 C 359.018,340.37 358.413,340.301 357.967,340.634 C 357.567,341.123 357.488,341.82 357.619,342.423 C 357.838,343.428 357.709,344.46 357.745,345.476 C 357.479,345.874 357.04,346.321 356.515,346.1 C 354.73,345.504 353.761,343.692 353.06,342.066 C 351.824,338.925 351.106,335.246 352.578,332.053 C 353.048,331.084 353.827,330.199 354.884,329.874 C 356.044,329.527 357.269,329.845 358.371,330.246 C 358.467,330.292 358.659,330.384 358.753,330.428 C 360.03,331.058 361.02,332.147 361.724,333.368 C 362.063,333.944 362.262,334.592 362.632,335.15 C 362.789,335.373 363.014,335.606 363.311,335.588 C 363.682,335.653 363.842,335.244 364.011,334.995 C 364.461,333.34 363.964,331.599 363.262,330.088 C 362.076,327.767 360.056,325.891 357.668,324.854 C 356.042,324.24 354.254,323.874 352.526,324.231 C 350.218,324.542 348.12,325.972 346.919,327.957 C 345.993,329.432 345.447,331.155 345.352,332.893 C 345.02,336.725 345.824,340.614 347.463,344.081 C 348.943,347.175 351.3,349.957 354.408,351.497 Z" marker-start="none" marker-end="none"/>
    <path d="M 309.182,349.532 C 310.471,349.976 311.882,350.305 313.235,349.977 C 314.804,349.744 316.112,348.487 316.543,346.985 C 317.384,348.493 319.694,348.471 320.717,347.184 C 321.311,346.33 321.184,345.224 320.874,344.289 C 320.324,342.644 319.637,341.036 319.306,339.326 C 318.845,337.143 318.592,334.926 318.438,332.704 C 318.508,331.257 318.156,329.592 319.106,328.357 C 319.732,327.568 320.812,328.391 321.507,327.849 C 321.566,326.351 320.577,325.028 319.438,324.154 C 317.425,322.65 314.046,323.285 312.919,325.6 C 312.438,326.591 312.218,327.699 312.162,328.791 L 312.065,328.788 C 310.852,326.107 308.938,323.544 306.169,322.338 C 304.175,321.498 301.813,321.374 299.838,322.338 C 298.206,323.124 297.046,324.711 296.612,326.451 C 296.138,328.305 296.342,330.247 296.617,332.114 C 297.319,335.894 298.654,339.602 300.864,342.769 C 302.933,345.732 305.754,348.274 309.182,349.532 M 310.961,343.621 C 308.412,342.478 306.502,340.273 305.209,337.846 C 305.162,337.757 305.069,337.577 305.02,337.485 C 304.929,337.297 304.835,337.107 304.746,336.915 C 303.701,334.648 302.789,332.175 303.021,329.639 C 303.209,328.359 304.756,327.911 305.812,328.434 C 307.312,329.135 308.405,330.428 309.392,331.715 C 310.051,332.62 310.688,333.543 311.263,334.502 C 312.128,335.928 312.655,337.523 313.142,339.109 C 313.522,340.388 313.77,341.748 313.537,343.074 C 313.176,344.144 311.792,343.925 310.961,343.621 Z" marker-start="none" marker-end="none"/>
    <path d="M 334.998,346.481 C 336.15,347.76 337.667,348.907 339.437,349.045 C 340.905,349.205 342.401,348.371 342.999,347.012 C 343.365,346.061 343.617,345.03 343.529,344.006 C 343.116,340.885 342.396,337.814 341.958,334.696 C 341.768,333.146 341.522,331.58 341.615,330.012 C 341.736,329.052 341.956,327.842 342.994,327.467 C 343.747,327.035 344.691,327.733 345.372,327.144 C 345.664,325.615 344.489,324.401 343.399,323.526 C 341.788,322.293 339.483,322.144 337.67,323.007 C 336.836,323.397 336.204,324.12 335.811,324.94 C 335.118,326.343 335.089,327.946 335.133,329.477 C 335.361,332.385 335.958,335.242 336.524,338.1 C 336.59,338.869 336.63,339.65 336.558,340.42 C 336.529,340.849 335.996,340.853 335.695,340.748 C 334.352,340.133 333.394,338.94 332.634,337.71 C 331.125,335.221 330.267,332.412 329.424,329.644 C 328.934,328.138 328.77,326.548 328.295,325.039 C 327.514,324.139 326.207,323.924 325.093,324.163 C 324.407,324.39 323.819,324.926 323.555,325.599 C 323.239,326.507 323.251,327.483 323.406,328.42 C 323.59,331.326 323.98,334.212 324.235,337.112 C 324.585,340.005 324.684,342.922 325.111,345.807 C 325.486,346.697 326.502,347.117 327.405,347.243 C 328.541,347.324 329.878,347.35 330.716,346.441 C 331.457,345.724 331.445,344.621 331.382,343.666 C 331.378,342.509 331.104,341.375 331.006,340.228 C 331.271,340.686 331.496,341.165 331.757,341.624 C 332.728,343.311 333.736,344.991 334.998,346.481 Z" marker-start="none" marker-end="none"/>
   </g>
   <path d="M 267.964,460.728 C 271.363,462.267 275.202,458.815 275.366,454.352 C 275.569,449.135 275.379,443.894 275.457,438.667 C 275.422,436.232 275.613,433.493 274.39,431.417 C 273.185,429.318 271.116,427.998 269.039,428.339 C 266.262,428.632 263.968,431.967 264.055,435.465 C 264.064,441.596 264.003,447.728 264.085,453.852 C 264.064,456.891 265.722,459.706 267.964,460.728 Z" stroke-width="0.431" fill-rule="nonzero" marker-start="none" marker-end="none"/>
   <path d="M 369.054,460.359 C 372.215,461.839 376.27,458.95 376.353,454.561 C 376.452,448.045 376.435,441.528 376.378,435.009 C 376.555,431.358 373.946,427.983 371.063,427.962 C 368.039,427.613 365.046,431.217 365.435,435.07 C 365.461,441.407 365.447,447.743 365.439,454.082 C 365.405,456.875 367.054,459.349 369.054,460.359 Z" stroke-width="0.431" fill-rule="nonzero" marker-start="none" marker-end="none"/>
   <path d="M 216.75,315.299 L 216.75,428.613 C 216.75,440.565 226.484,450.268 238.475,450.268 L 263.164,450.268 C 263.148,446.24 263.179,442.211 263.177,438.18 L 248.413,438.18 C 237.942,438.18 229.444,429.709 229.444,419.271 L 229.444,324.369 C 229.444,313.931 237.942,305.459 248.413,305.459 L 385.305,305.459 C 395.776,305.459 404.274,313.931 404.274,324.369 L 404.274,419.271 C 404.274,429.709 395.776,438.18 385.305,438.18 L 377.28,438.18 C 377.322,442.21 377.343,446.239 377.316,450.268 L 395.245,450.268 C 407.236,450.268 416.97,440.565 416.97,428.613 L 416.97,315.299 C 416.97,303.347 407.236,293.644 395.245,293.644 L 238.475,293.644 C 226.484,293.644 216.75,303.347 216.75,315.299 Z M 277.017,440.616 C 276.956,443.831 277.028,447.05 277.023,450.268 L 364.003,450.268 C 364.008,446.237 364.01,442.21 363.991,438.18 L 276.991,438.18 C 277.02,439.001 277.003,439.825 277.017,440.616 Z" stroke-width="0.526" marker-start="none" marker-end="none"/>
  </g>
 </g>
</svg>
